# xmcd
#
# Track frame offsets: 
#        150
#        17950
#        28627
#        41905
#        60405
#        77307
#        90413
#        102636
#        121150
#        135567
#        149094
#        161565
#
# Disc length: 2385 seconds
#
# Revision: 0
# Processed by: cddbd v1.5.1PL0 Copyright (c) Steve Scherf et al.
# Submitted via: ExactAudioCopy v0.95b3
#
DISCID=9b094f0c
DTITLE=Linkwork - Down The Drain
DYEAR=2005
DGENRE=Rock
TTITLE0=I Say
TTITLE1=That Letter
TTITLE2=All I Am
TTITLE3=So Simple
TTITLE4=Pardon Me
TTITLE5=Over Now
TTITLE6=Out Of Humor
TTITLE7=Little M.
TTITLE8=Look Down
TTITLE9=All About
TTITLE10=Down The Drain (Part 1)
TTITLE11=Down The Drain (Part 2)
EXTD=
EXTT0=
EXTT1=
EXTT2=
EXTT3=
EXTT4=
EXTT5=
EXTT6=
EXTT7=
EXTT8=
EXTT9=
EXTT10=
EXTT11=
PLAYORDER=
